<?xml version="1.0" encoding="UTF-8" standalone="no"?>
<!-- Created with Inkscape (http://www.inkscape.org/) -->

<svg
   width="27.158669mm"
   height="27.15867mm"
   viewBox="0 0 27.158669 27.15867"
   version="1.1"
   id="svg1"
   inkscape:version="1.3.2 (1:1.3.2+202311252150+091e20ef0f)"
   sodipodi:docname="velocity_planner_logo.svg"
   xmlns:inkscape="http://www.inkscape.org/namespaces/inkscape"
   xmlns:sodipodi="http://sodipodi.sourceforge.net/DTD/sodipodi-0.dtd"
   xmlns="http://www.w3.org/2000/svg"
   xmlns:svg="http://www.w3.org/2000/svg">
  <sodipodi:namedview
     id="namedview1"
     pagecolor="#ffffff"
     bordercolor="#000000"
     borderopacity="0.25"
     inkscape:showpageshadow="2"
     inkscape:pageopacity="0.0"
     inkscape:pagecheckerboard="0"
     inkscape:deskcolor="#d1d1d1"
     inkscape:document-units="mm"
     inkscape:zoom="3.411691"
     inkscape:cx="-4.5432016"
     inkscape:cy="26.37988"
     inkscape:window-width="3786"
     inkscape:window-height="1536"
     inkscape:window-x="54"
     inkscape:window-y="27"
     inkscape:window-maximized="1"
     inkscape:current-layer="layer1" />
  <defs
     id="defs1" />
  <g
     inkscape:label="Layer 1"
     inkscape:groupmode="layer"
     id="layer1"
     transform="translate(-108.00354,-116.90779)">
    <path
       style="fill:#000000;fill-opacity:1;stroke:none;stroke-width:0.137927;stroke-dasharray:none"
       d="m 118.88767,139.13297 -10.14392,0.0604 10.14392,-0.3965 z"
       id="path18"
       sodipodi:nodetypes="cccc" />
    <path
       style="fill:#000000;fill-opacity:1;stroke:none;stroke-width:0.137927;stroke-dasharray:none"
       d="m 120.38019,136.97148 -10.1439,0.0604 10.1439,-0.3965 z"
       id="path18-6"
       sodipodi:nodetypes="cccc" />
    <path
       style="fill:#000000;fill-opacity:1;stroke:none;stroke-width:0.137927;stroke-dasharray:none"
       d="m 121.58287,134.80999 -10.1439,0.0604 10.1439,-0.3965 z"
       id="path18-6-0"
       sodipodi:nodetypes="cccc" />
    <path
       style="fill:#000000;fill-opacity:1;stroke:none;stroke-width:0.137927;stroke-dasharray:none"
       d="m 120.72015,129.54832 -7.44171,0.0476 7.4907,-0.26533 z"
       id="path18-2"
       sodipodi:nodetypes="cccc" />
    <path
       style="fill:#0065bd;fill-opacity:1;stroke:none;stroke-width:0.236941"
       d="m 110.13515,122.57013 h 8.09255 l 1.87827,9.9615 v 1.1912 l 6.90267,-11.22075 h 2.99175 l -11.0965,16.69129 -2.9926,-14.55951 z"
       id="path1" />
    <path
       style="fill:#0065bd;fill-opacity:1;stroke:none;stroke-width:0.639675;stroke-dasharray:none"
       d="M 120.09035,139.19337 H 109.26073"
       id="path17" />
    <rect
       style="fill:#1e1e1e;fill-opacity:1;stroke:none;stroke-width:0.3;stroke-dasharray:none;stroke-opacity:1"
       id="rect9-9-1"
       width="21.854666"
       height="5.8271279"
       x="110.65554"
       y="127.03089" />
    <path
       style="fill:#ffffff;fill-opacity:1;stroke:none;stroke-width:0.0818609;stroke-dasharray:none;stroke-opacity:1"
       d="m 116.33139,130.48546 v -2.52471 h -0.57807 -0.57807 v -0.54101 -0.54102 h 2.27616 2.27615 v 2.52473 2.52472 h 0.68646 0.68646 v -2.52472 -2.52473 h 2.99877 2.99875 v 3.06574 3.06572 h -0.54196 -0.54192 v -2.52472 -2.52471 h -0.68647 -0.68645 v 2.52471 2.52472 h -0.54195 -0.54194 v -2.52472 -2.52471 h -0.68649 -0.68644 v 2.52471 2.52472 h -1.77036 -1.77034 v -2.52472 -2.52471 h -0.61421 -0.61418 v 2.52471 2.52472 h -0.54196 -0.54194 z"
       id="path10-5-8" />
  </g>
</svg>
